# xmcd CD database file
#
# Track frame offsets:
#	182
#	14397
#	25095
#	35987
#	45875
#	57385
#	66725
#	81262
#	89762
#	102350
#	113870
#	123745
#	131557
#	144050
#	154155
#	165247
#	179680
#	192017
#
# Disc length: 2699 seconds
#
# Revision: 0
# Processed by: cddbd v1.5.2PL0 Copyright (c) Steve Scherf et al.
# Submitted via: CDex 1.51
#
DISCID=fc0a8912
DTITLE=Francoise Hardy - 2000 18 Chansons (BMG France Loisirs)
DYEAR=2000
DGENRE=Blues
TTITLE0=Tous les garcons et les filles
TTITLE1=Oh, oh cheri
TTITLE2=Le temps de l'amour
TTITLE3=Ton meilleur ami
TTITLE4=J'ai jete mon coeur
TTITLE5=J'suis d'accord
TTITLE6=C'est a l'amour auquel je pense
TTITLE7=Le premier bonheur du jour
TTITLE8=Va pas prendre un tambour
TTITLE9=Comme tant d'autres
TTITLE10=L'amour d'un garcon
TTITLE11=L'amour ne dure pas toujours
TTITLE12=Je veux qu'il revienne
TTITLE13=Et meme
TTITLE14=Pourtant tu m'aimes
TTITLE15=Je n'attends plus personne
TTITLE16=Nous etions amies
TTITLE17=Mon amie la rose
EXTD=YEAR: 2000
EXTT0=
EXTT1=
EXTT2=
EXTT3=
EXTT4=
EXTT5=
EXTT6=
EXTT7=
EXTT8=
EXTT9=
EXTT10=
EXTT11=
EXTT12=
EXTT13=
EXTT14=
EXTT15=
EXTT16=
EXTT17=
PLAYORDER=
